<?xml version="1.0"?>
<svg xmlns="http://www.w3.org/2000/svg" xmlns:xlink="http://www.w3.org/1999/xlink" version="1.1" viewBox="0 0 224 224" width="32px" height="32px"><g fill="none" fill-rule="nonzero" stroke="none" stroke-width="1" stroke-linecap="butt" stroke-linejoin="miter" stroke-miterlimit="10" stroke-dasharray="" stroke-dashoffset="0" font-family="none" font-weight="none" font-size="none" text-anchor="none" style="mix-blend-mode: normal"><path d="M0,224v-224h224v224z" fill="none"/><g fill="#ffffff"><g id="surface1"><path d="M77,49c-34.80859,0 -63,28.19141 -63,63c0,34.80859 28.19141,63 63,63c34.80859,0 63,-28.19141 63,-63c0,-4.32031 -0.46484,-8.53125 -1.3125,-12.60547l-0.32812,-1.39453h-61.35937v21h42c-3.33593,19.85157 -21.19141,35 -42,35c-23.1875,0 -42,-18.8125 -42,-42c0,-23.1875 18.8125,-42 42,-42c10.5,0 20.07032,3.88282 27.45313,10.25391l15.03907,-14.73828c-11.21094,-10.25391 -26.11328,-16.51562 -42.49219,-16.51562zM175,77v21h-21v14h21v21h14v-21h21v-14h-21v-21z"/></g></g></g></svg>
